#N canvas 1135 104 430 348 10;
#X obj 41 149 comport 0 9600;
#X msg 41 46 108;
#X msg 41 22 97;
#X text 70 23 Auto-Calibrate;
#X text 68 46 LightTest;
#X msg 41 70 114;
#X text 70 68 Player Ready;
#X msg 41 94 65;
#X text 70 94 Abort Player Ready;
#X text 248 26 DrinkShield Test Patch;
#X msg 248 115 devices;
#X text 306 104 List Devices;
#X obj 248 69 hradio 15 1 0 8 empty empty empty 0 -8 0 10 -262144 -1
-1 0;
#X text 248 47 0 1 2 3 4 5 6 7;
#X text 208 59 Serial;
#X msg 248 91 open \$1;
#X obj 93 190 moses 48;
#X obj 93 214 moses 58;
#X obj 26 183 sel 10 13;
#X obj 51 235 zl group 5;
#X obj 51 259 sprintf %c%c%c%c%c;
#X floatatom 87 292 5 0 0 3 Score - -;
#X msg 40 119 115;
#X text 66 119 Stream Results;
#X obj 172 251 print;
#X obj 235 153 vsl 15 128 48 59 0 0 empty empty empty 0 -9 0 10 -191407
-1 -1 0 1;
#X obj 185 133 i;
#X text 223 283 LightBar;
#X connect 0 0 18 0;
#X connect 1 0 0 0;
#X connect 2 0 0 0;
#X connect 5 0 0 0;
#X connect 7 0 0 0;
#X connect 10 0 0 0;
#X connect 12 0 15 0;
#X connect 15 0 0 0;
#X connect 16 1 17 0;
#X connect 17 0 19 0;
#X connect 18 1 19 0;
#X connect 18 2 16 0;
#X connect 19 0 20 0;
#X connect 19 0 24 0;
#X connect 20 0 21 0;
#X connect 22 0 0 0;
#X connect 25 0 26 0;
#X connect 26 0 0 0;
